<svg xmlns="http://www.w3.org/2000/svg" enable-background="new 0 0 100 100" viewBox="0 0 100 100"><path d="M49.991,2.5c-45.364-0.022-62.7,52.324-31.772,81.859c-0.001,0.001,0.25,8.203,0.25,8.203
			c0.01,3.493,3.979,5.993,7.132,4.496c0,0,9.146-4.034,9.146-4.034C108.373,109.493,121.687,5.668,49.991,2.5z M49.991,91.939
			c-4.473,0-8.84-0.579-12.982-1.723c-1.12-0.305-2.322-0.215-3.387,0.256l-9.143,4.033c-1.424,0.677-3.224-0.451-3.223-2.031
			c0,0-0.251-8.208-0.251-8.208c-0.051-1.385-0.655-2.667-1.707-3.614C-9.869,53.921,9.114,4.536,49.992,5.289
			C109.319,6.035,109.314,91.199,49.991,91.939z"/><path d="M73.655,34.275L59.113,45.311c-0.495,0.373-1.159,0.376-1.652,0.007l-10.77-8.08c-3.709-2.908-9.589-1.821-12.015,2.219
			c-0.949,1.572,1.354,3.02,2.358,1.487c1.608-2.689,5.529-3.414,7.986-1.471c0,0,10.768,8.078,10.768,8.078
			c1.475,1.103,3.533,1.098,5.008-0.015l14.546-11.039c0.766-0.569,1.62,0.358,1.148,1.059c0,0-13.542,21.483-13.542,21.483
			c-1.609,2.686-5.519,3.414-7.984,1.473c0,0-10.772-8.081-10.772-8.081c-1.476-1.102-3.534-1.096-5.008,0.015L24.64,63.487
			c-0.752,0.559-1.624-0.34-1.149-1.059c0,0,9.797-15.541,9.797-15.541c0.957-1.564-1.361-3.022-2.358-1.487
			c0,0-9.794,15.536-9.794,15.536c-2.146,3.307,2.071,7.194,5.192,4.771c0,0,14.541-11.037,14.541-11.037
			c0.496-0.374,1.162-0.375,1.654-0.006l10.769,8.079c3.706,2.908,9.59,1.82,12.016-2.217c0,0,13.541-21.48,13.541-21.48
			C80.988,35.741,76.783,31.853,73.655,34.275z"/></svg>